<mxfile host="65bd71144e">
    <diagram id="9FJKt1CioVuz7ka-WbvN" name="Page-1">
        <mxGraphModel dx="547" dy="581" grid="1" gridSize="10" guides="1" tooltips="1" connect="1" arrows="1" fold="1" page="1" pageScale="1" pageWidth="850" pageHeight="1100" math="0" shadow="0">
            <root>
                <mxCell id="0"/>
                <mxCell id="1" parent="0"/>
                <mxCell id="2" value="" style="whiteSpace=wrap;html=1;aspect=fixed;" vertex="1" parent="1">
                    <mxGeometry x="250" y="410" width="350" height="350" as="geometry"/>
                </mxCell>
                <mxCell id="7" style="edgeStyle=none;html=1;" edge="1" parent="1" source="6" target="2">
                    <mxGeometry relative="1" as="geometry"/>
                </mxCell>
                <mxCell id="8" style="edgeStyle=none;html=1;" edge="1" parent="1" source="6" target="2">
                    <mxGeometry relative="1" as="geometry"/>
                </mxCell>
                <mxCell id="6" value="DECORATOR FUCNTION" style="text;html=1;align=center;verticalAlign=middle;resizable=0;points=[];autosize=1;strokeColor=none;fillColor=none;fontSize=28;" vertex="1" parent="1">
                    <mxGeometry x="250" y="410" width="350" height="50" as="geometry"/>
                </mxCell>
                <mxCell id="9" value="" style="rounded=0;whiteSpace=wrap;html=1;fontSize=28;" vertex="1" parent="1">
                    <mxGeometry x="250" y="460" width="350" height="10" as="geometry"/>
                </mxCell>
                <mxCell id="10" value="" style="rhombus;whiteSpace=wrap;html=1;fontSize=28;" vertex="1" parent="1">
                    <mxGeometry x="285" y="255" width="280" height="80" as="geometry"/>
                </mxCell>
                <mxCell id="11" value="FUNCTION" style="text;html=1;align=center;verticalAlign=middle;resizable=0;points=[];autosize=1;strokeColor=none;fillColor=none;fontSize=28;" vertex="1" parent="1">
                    <mxGeometry x="340" y="270" width="170" height="50" as="geometry"/>
                </mxCell>
                <mxCell id="12" value="" style="shape=singleArrow;direction=south;whiteSpace=wrap;html=1;fontSize=28;" vertex="1" parent="1">
                    <mxGeometry x="395" y="330" width="60" height="80" as="geometry"/>
                </mxCell>
                <mxCell id="22" value="" style="edgeStyle=none;html=1;fontSize=28;" edge="1" parent="1" source="13">
                    <mxGeometry relative="1" as="geometry">
                        <mxPoint x="425" y="625" as="targetPoint"/>
                        <Array as="points">
                            <mxPoint x="425" y="590"/>
                        </Array>
                    </mxGeometry>
                </mxCell>
                <mxCell id="13" value="OPERATION&amp;nbsp;" style="text;html=1;align=center;verticalAlign=middle;resizable=0;points=[];autosize=1;strokeColor=none;fillColor=none;fontSize=28;" vertex="1" parent="1">
                    <mxGeometry x="330" y="500" width="190" height="50" as="geometry"/>
                </mxCell>
                <mxCell id="23" value="FUNCTION" style="text;html=1;align=center;verticalAlign=middle;resizable=0;points=[];autosize=1;strokeColor=none;fillColor=none;fontSize=28;" vertex="1" parent="1">
                    <mxGeometry x="340" y="630" width="170" height="50" as="geometry"/>
                </mxCell>
                <mxCell id="25" value="" style="shape=singleArrow;direction=south;whiteSpace=wrap;html=1;fontSize=28;" vertex="1" parent="1">
                    <mxGeometry x="395" y="760" width="60" height="100" as="geometry"/>
                </mxCell>
                <mxCell id="26" value="OUTPUT" style="text;html=1;align=center;verticalAlign=middle;resizable=0;points=[];autosize=1;strokeColor=none;fillColor=none;fontSize=28;" vertex="1" parent="1">
                    <mxGeometry x="355" y="860" width="140" height="50" as="geometry"/>
                </mxCell>
            </root>
        </mxGraphModel>
    </diagram>
</mxfile>